# xmcd
#
# Track frame offsets:
#	150
#	5070
#	19353
#	35079
#	49382
#	66434
#	80494
#	95956
#	108912
#	128423
#	144456
#	164217
#	178283
#	201661
#
# Disc length: 3621 seconds
#
# Revision: 1
# Processed by: cddbd v1.5.1PL2 Copyright (c) Steve Scherf et al.
# Submitted via: audiograbber 1.81.02
#
DISCID=dd0e230e
DTITLE=Japhia Life - Fountain Of Life
DYEAR=2006
DGENRE=Christian Gangsta Rap
TTITLE0=Intro
TTITLE1=We Cry Blood
TTITLE2=Sunshine (The Hood)
TTITLE3=Move
TTITLE4=Preacher Man
TTITLE5=Fire
TTITLE6=All I Know
TTITLE7=Hurry
TTITLE8=Hip Hop
TTITLE9=Joanna
TTITLE10=Stained Glass Windows
TTITLE11=Don't Cry Mama
TTITLE12=Love
TTITLE13=Daten-CD
EXTD=
EXTT0=
EXTT1=
EXTT2=
EXTT3=
EXTT4=
EXTT5=
EXTT6=
EXTT7=
EXTT8=
EXTT9=
EXTT10=
EXTT11=
EXTT12=
EXTT13=
PLAYORDER=
